<svg width="211" height="232" viewBox="0 0 211 232" fill="none" xmlns="http://www.w3.org/2000/svg">
<g clip-path="url(#clip0_51_3495)">
<path d="M106.433 4.67928V10.5987L107.609 31.2644C107.609 32.3591 107.243 33.6918 108.33 33.8177C116.58 34.773 124.133 42.8599 123.932 51.4107C123.727 60.0712 115.488 68.3109 106.827 68.5152C97.6308 68.7322 89.1249 60.1634 89.1249 51.0161C89.1249 49.9567 89.0298 48.9224 89.2231 47.9197H57.9616C57.8984 48.9434 57.8649 49.9756 57.8649 51.0161C57.8649 77.8393 79.6092 99.5836 106.432 99.5836C133.19 99.5836 155 77.7734 155 51.0158C155 24.953 134.47 3.68497 108.699 2.50085C107.463 2.44399 106.433 3.44124 106.433 4.67928Z" fill="url(#paint0_linear_51_3495)"/>
<path d="M106.639 68.7106C97.5286 68.8228 88.9288 60.1002 88.9288 51.0159C88.9288 49.9565 89.0298 48.9222 89.2231 47.9194H57.9616C57.9069 48.8086 57.8759 49.7043 57.8682 50.6063L106.639 99.3769V68.7106Z" fill="url(#paint1_linear_51_3495)"/>
<path d="M106.433 10.5981V19.1274L107.413 31.2638C107.413 32.3585 107.988 33.9787 109.075 34.1048C117.325 35.0601 123.837 42.7925 123.636 51.3432C123.431 60.0038 115.299 68.0081 106.639 68.2125C97.4425 68.4295 89.321 60.1628 89.321 51.0156C89.321 49.9562 89.422 48.9219 89.6153 47.9191H66.1325C66.058 48.8989 66.0182 49.8881 66.0151 50.8872C65.9457 72.9468 83.7765 91.1097 105.834 91.4289C128.43 91.756 146.85 73.5376 146.85 51.0158C146.85 28.6932 128.755 10.5981 106.433 10.5981Z" fill="url(#paint2_linear_51_3495)"/>
<path d="M66.9618 59.6998L97.7547 90.4928C100.363 91.0675 103.065 91.389 105.834 91.4292C106.103 91.4332 106.371 91.432 106.639 91.4306V68.7106C97.5286 68.8228 89.1249 60.1002 89.1249 51.0159C89.1249 49.9565 89.2259 48.9222 89.4192 47.9194H66.1325C66.058 48.8992 66.0182 49.8885 66.0151 50.8875C66.0057 53.9104 66.3343 56.8592 66.9618 59.6998Z" fill="url(#paint3_linear_51_3495)"/>
<path d="M106.433 18.9102V26.7384L107.217 31.4602C107.217 32.5549 107.243 33.8876 108.33 34.0135C116.58 34.9688 123.741 42.8596 123.539 51.4104C123.335 60.0709 115.488 67.9184 106.827 68.1227C97.6308 68.3398 89.1249 60.1631 89.1249 51.0158C89.1249 49.9564 89.2259 48.9221 89.4192 47.9194H74.4739C74.3772 48.939 74.3268 49.9711 74.3268 51.0158C74.3268 68.7472 88.701 83.1215 106.432 83.1215C124.147 83.1217 138.539 68.7304 138.538 51.0154C138.538 33.2843 124.164 18.9102 106.433 18.9102Z" fill="url(#paint4_linear_51_3495)"/>
<path d="M106.432 83.1216C106.501 83.1216 106.57 83.1194 106.639 83.119V68.3185C97.5286 68.4306 89.1249 60.1002 89.1249 51.0159C89.1249 49.9565 89.2259 48.9222 89.4192 47.9194H74.4739C74.3772 48.939 74.3268 49.9712 74.3268 51.0159C74.3266 68.7473 88.701 83.1216 106.432 83.1216Z" fill="url(#paint5_linear_51_3495)"/>
<path d="M106.433 26.7007V32.6368C106.433 33.7315 107.243 34.6721 108.33 34.7979C116.58 35.7532 122.957 42.8597 122.755 51.4105C122.551 60.0711 115.488 67.1342 106.827 67.3385C97.6308 67.5556 90.1053 60.1632 90.1053 51.016C90.1053 49.9566 90.2063 48.9223 90.3996 47.9195H82.3127C82.1845 48.9326 82.1172 49.967 82.1172 51.016C82.1172 64.5597 93.192 75.5181 106.779 75.3289C119.875 75.1466 130.563 64.4585 130.746 51.3626C130.935 37.7754 119.976 26.7007 106.433 26.7007Z" fill="url(#paint6_linear_51_3495)"/>
<path d="M106.639 75.3289V67.3381C97.5286 67.4502 90.1053 60.1002 90.1053 51.0159C90.1053 49.9565 90.2063 48.9222 90.3996 47.9194H82.3127C82.1845 48.9326 82.1172 49.9669 82.1172 51.0159C82.1172 64.513 93.1159 75.441 106.639 75.3289Z" fill="url(#paint7_linear_51_3495)"/>
<path d="M76.8531 0.416504H71.4761C69.1445 0.416504 67.2545 2.3065 67.2545 4.63807V5.58905C67.2545 7.59944 67.5543 9.59866 68.1443 11.5206C68.7341 13.4426 69.0341 15.4418 69.0341 17.4522V27.4463H79.2949V17.4522C79.2949 15.4418 79.5947 13.4426 80.1847 11.5206C80.7745 9.59866 81.0745 7.59944 81.0745 5.58905V4.63807C81.0747 2.3065 79.1845 0.416504 76.8531 0.416504Z" fill="url(#paint8_linear_51_3495)"/>
<path d="M57.7517 27.8438V50.1843C57.7517 50.6437 58.1241 51.0161 58.5835 51.0161H62.4904C62.8286 51.0161 63.1331 50.8114 63.2606 50.4983L63.9208 48.8779C64.2092 48.17 65.2196 48.1932 65.4749 48.9137L66.0241 50.4626C66.1417 50.7945 66.4559 51.0163 66.808 51.0163H75.6802C75.9976 51.0163 76.2872 50.8357 76.427 50.5506L77.1188 49.1396C77.3617 48.6439 78.0115 48.5181 78.4219 48.8875C78.7855 49.2145 79.3515 49.159 79.6445 48.7673L80.0337 48.2469C80.4521 47.6873 81.3323 47.8618 81.5055 48.5386L81.9796 50.3908C82.0739 50.7588 82.4055 51.0163 82.7853 51.0163H89.7455C90.2049 51.0163 90.5772 50.6439 90.5772 50.1845V27.8438H57.7517Z" fill="url(#paint9_linear_51_3495)"/>
<path d="M57.7517 31.0473L76.6994 49.9949L77.1188 49.1392C77.3617 48.6435 78.0115 48.5177 78.4219 48.8871C78.7855 49.2141 79.3515 49.1586 79.6445 48.7669L80.0337 48.2465C80.4521 47.6869 81.3323 47.8614 81.5057 48.5382L81.9798 50.3904C82.0741 50.7584 82.4057 51.0159 82.7855 51.0159H89.7457C90.2051 51.0159 90.5774 50.6435 90.5774 50.1841V27.8438H57.7517V31.0473Z" fill="url(#paint10_linear_51_3495)"/>
<path d="M86.9735 27.8438H61.3559V51.0161H62.4904C62.8286 51.0161 63.1332 50.8114 63.2606 50.4981L63.9208 48.8777C64.2092 48.1698 65.2196 48.193 65.4749 48.9136L66.0241 50.4624C66.1418 50.7943 66.4559 51.0161 66.8081 51.0161H75.6802C75.9977 51.0161 76.2873 50.8355 76.4271 50.5504L77.1188 49.1394C77.3618 48.6437 78.0116 48.5179 78.422 48.8873C78.7855 49.2143 79.3516 49.1588 79.6445 48.7671L80.0337 48.2467C80.4522 47.6871 81.3324 47.8616 81.5057 48.5385L81.9798 50.3906C82.0741 50.7587 82.4057 51.0161 82.7855 51.0161H86.9733V27.8438H86.9735Z" fill="url(#paint11_linear_51_3495)"/>
<path d="M80.5939 27.8438H67.7353V51.0161H75.6804C75.9978 51.0161 76.2874 50.8355 76.4272 50.5504L77.119 49.1394C77.362 48.6437 78.0118 48.5179 78.4222 48.8873C78.7857 49.2143 79.3518 49.1588 79.6447 48.7671L80.0339 48.2467C80.1806 48.0506 80.3843 47.9465 80.5941 47.9206L80.5939 27.8438Z" fill="url(#paint12_linear_51_3495)"/>
<path d="M90.7406 30.8846H57.5886C56.159 30.8846 55 29.7256 55 28.2959V26.574C55 25.1444 56.159 23.9854 57.5886 23.9854H90.7406C92.1702 23.9854 93.3292 25.1444 93.3292 26.574V28.2959C93.3292 29.7256 92.1702 30.8846 90.7406 30.8846Z" fill="url(#paint13_linear_51_3495)"/>
</g>
<defs>
<linearGradient id="paint0_linear_51_3495" x1="92.9116" y1="37.4954" x2="152.157" y2="96.7412" gradientUnits="userSpaceOnUse">
<stop stop-color="#FF755C"/>
<stop offset="1" stop-color="#FF4181"/>
</linearGradient>
<linearGradient id="paint1_linear_51_3495" x1="82.4018" y1="60.0061" x2="74.2735" y2="40.9469" gradientUnits="userSpaceOnUse">
<stop stop-color="#843561" stop-opacity="0"/>
<stop offset="1" stop-color="#3A2F4D"/>
</linearGradient>
<linearGradient id="paint2_linear_51_3495" x1="95.0069" y1="39.5619" x2="144.569" y2="89.124" gradientUnits="userSpaceOnUse">
<stop stop-color="#FFCE47"/>
<stop offset="1" stop-color="#FF9356"/>
</linearGradient>
<linearGradient id="paint3_linear_51_3495" x1="88.5065" y1="68.0261" x2="75.0527" y2="37.8955" gradientUnits="userSpaceOnUse">
<stop stop-color="#FF755C" stop-opacity="0"/>
<stop offset="1" stop-color="#FF4181"/>
</linearGradient>
<linearGradient id="paint4_linear_51_3495" x1="93.3733" y1="37.9566" x2="129.119" y2="73.7023" gradientUnits="userSpaceOnUse">
<stop stop-color="#E4E08E"/>
<stop offset="1" stop-color="#6FA953"/>
</linearGradient>
<linearGradient id="paint5_linear_51_3495" x1="92.927" y1="68.2743" x2="79.83" y2="43.621" gradientUnits="userSpaceOnUse">
<stop stop-color="#43765A" stop-opacity="0"/>
<stop offset="1" stop-color="#43765A"/>
</linearGradient>
<linearGradient id="paint6_linear_51_3495" x1="96.2437" y1="40.8272" x2="123.598" y2="68.1811" gradientUnits="userSpaceOnUse">
<stop stop-color="#7ACBFF"/>
<stop offset="1" stop-color="#45A2E0"/>
</linearGradient>
<linearGradient id="paint7_linear_51_3495" x1="95.7039" y1="64.7365" x2="85.4735" y2="47.0787" gradientUnits="userSpaceOnUse">
<stop stop-color="#7ACBFF" stop-opacity="0"/>
<stop offset="1" stop-color="#2F73A0"/>
</linearGradient>
<linearGradient id="paint8_linear_51_3495" x1="67.458" y1="13.9314" x2="84.8365" y2="13.9314" gradientUnits="userSpaceOnUse">
<stop stop-color="#FFCE47"/>
<stop offset="1" stop-color="#FF9356"/>
</linearGradient>
<linearGradient id="paint9_linear_51_3495" x1="72.5094" y1="37.8483" x2="93.3425" y2="54.9932" gradientUnits="userSpaceOnUse">
<stop stop-color="#FFDECF"/>
<stop offset="1" stop-color="#FAA68E"/>
</linearGradient>
<linearGradient id="paint10_linear_51_3495" x1="74.1647" y1="37.3853" x2="74.1647" y2="23.9555" gradientUnits="userSpaceOnUse">
<stop stop-color="#FF9356" stop-opacity="0"/>
<stop offset="1" stop-color="#FF4181"/>
</linearGradient>
<linearGradient id="paint11_linear_51_3495" x1="71.622" y1="33.8265" x2="87.2718" y2="68.3157" gradientUnits="userSpaceOnUse">
<stop stop-color="#FF9356" stop-opacity="0"/>
<stop offset="1" stop-color="#FF4181"/>
</linearGradient>
<linearGradient id="paint12_linear_51_3495" x1="71.2753" y1="42.8285" x2="59.5131" y2="62.9637" gradientUnits="userSpaceOnUse">
<stop stop-color="#FF9356" stop-opacity="0"/>
<stop offset="1" stop-color="#FF4181"/>
</linearGradient>
<linearGradient id="paint13_linear_51_3495" x1="74.1647" y1="23.7883" x2="74.1647" y2="29.7461" gradientUnits="userSpaceOnUse">
<stop stop-color="#FFCE47"/>
<stop offset="1" stop-color="#FF9356"/>
</linearGradient>
<clipPath id="clip0_51_3495">
<rect width="100" height="100" fill="white" transform="translate(55)"/>
</clipPath>
</defs>
</svg>
