<svg width="211" height="240" viewBox="0 0 211 240" fill="none" xmlns="http://www.w3.org/2000/svg">
<path d="M112.812 21.875H97.1875C96.6953 21.875 96.2328 21.6438 95.9375 21.25L87.0312 9.375H65.9375C65.075 9.375 64.375 8.675 64.375 7.8125C64.375 6.95 65.075 6.25 65.9375 6.25H87.8125C88.3047 6.25 88.7672 6.48125 89.0625 6.875L97.9688 18.75H112.031L120.938 6.875C121.233 6.48125 121.697 6.25 122.188 6.25H144.062C144.927 6.25 145.625 6.95 145.625 7.8125C145.625 8.675 144.927 9.375 144.062 9.375H122.969L114.062 21.25C113.767 21.6438 113.303 21.875 112.812 21.875Z" fill="#FDC741"/>
<path d="M122.188 34.375H87.8125C87.3563 34.375 86.9234 34.1766 86.6266 33.8297L77.7188 23.4375H72.1875C71.325 23.4375 70.625 22.7375 70.625 21.875C70.625 21.0125 71.325 20.3125 72.1875 20.3125H78.4375C78.8938 20.3125 79.3266 20.5109 79.6234 20.8578L88.5312 31.25H121.469L130.377 20.8578C130.673 20.5109 131.106 20.3125 131.562 20.3125H137.812C138.677 20.3125 139.375 21.0125 139.375 21.875C139.375 22.7375 138.677 23.4375 137.812 23.4375H132.281L123.373 33.8297C123.077 34.1766 122.644 34.375 122.188 34.375Z" fill="#FDC741"/>
<path d="M122.188 51.5625H87.8125C87.3203 51.5625 86.8578 51.3312 86.5625 50.9375L77.6562 39.0625H65.9375C65.075 39.0625 64.375 38.3625 64.375 37.5C64.375 36.6375 65.075 35.9375 65.9375 35.9375H78.4375C78.9297 35.9375 79.3922 36.1687 79.6875 36.5625L88.5938 48.4375H121.406L130.312 36.5625C130.606 36.1687 131.07 35.9375 131.562 35.9375H144.062C144.927 35.9375 145.625 36.6375 145.625 37.5C145.625 38.3625 144.927 39.0625 144.062 39.0625H132.344L123.438 50.9375C123.142 51.3312 122.678 51.5625 122.188 51.5625Z" fill="#FDC741"/>
<path d="M144.062 93.75H122.188C121.697 93.75 121.233 93.5187 120.938 93.125L112.031 81.25H97.9688L89.0625 93.125C88.7672 93.5187 88.3047 93.75 87.8125 93.75H65.9375C65.075 93.75 64.375 93.05 64.375 92.1875C64.375 91.325 65.075 90.625 65.9375 90.625H87.0312L95.9375 78.75C96.2313 78.3563 96.6953 78.125 97.1875 78.125H112.812C113.303 78.125 113.767 78.3563 114.062 78.75L122.969 90.625H144.062C144.927 90.625 145.625 91.325 145.625 92.1875C145.625 93.05 144.927 93.75 144.062 93.75Z" fill="#FDC741"/>
<path d="M137.812 79.6875H131.562C131.106 79.6875 130.673 79.4891 130.377 79.1422L121.469 68.75H88.5312L79.6234 79.1422C79.3266 79.4891 78.8938 79.6875 78.4375 79.6875H72.1875C71.325 79.6875 70.625 78.9875 70.625 78.125C70.625 77.2625 71.325 76.5625 72.1875 76.5625H77.7188L86.6266 66.1703C86.9234 65.8234 87.3563 65.625 87.8125 65.625H122.188C122.644 65.625 123.077 65.8234 123.373 66.1703L132.281 76.5625H137.812C138.677 76.5625 139.375 77.2625 139.375 78.125C139.375 78.9875 138.677 79.6875 137.812 79.6875Z" fill="#FDC741"/>
<path d="M144.062 64.0625H131.562C131.072 64.0625 130.608 63.8312 130.312 63.4375L121.406 51.5625H88.5938L79.6875 63.4375C79.3922 63.8312 78.9297 64.0625 78.4375 64.0625H65.9375C65.075 64.0625 64.375 63.3625 64.375 62.5C64.375 61.6375 65.075 60.9375 65.9375 60.9375H77.6562L86.5625 49.0625C86.8563 48.6687 87.3203 48.4375 87.8125 48.4375H122.188C122.678 48.4375 123.142 48.6687 123.438 49.0625L132.344 60.9375H144.062C144.927 60.9375 145.625 61.6375 145.625 62.5C145.625 63.3625 144.927 64.0625 144.062 64.0625Z" fill="#FDC741"/>
<path d="M147.188 10.9375C148.913 10.9375 150.312 9.53839 150.312 7.8125C150.312 6.08661 148.913 4.6875 147.188 4.6875C145.462 4.6875 144.062 6.08661 144.062 7.8125C144.062 9.53839 145.462 10.9375 147.188 10.9375Z" fill="#FFFA48"/>
<path d="M140.938 25C142.663 25 144.062 23.6009 144.062 21.875C144.062 20.1491 142.663 18.75 140.938 18.75C139.212 18.75 137.812 20.1491 137.812 21.875C137.812 23.6009 139.212 25 140.938 25Z" fill="#FFFA48"/>
<path d="M147.188 40.625C148.913 40.625 150.312 39.2259 150.312 37.5C150.312 35.7741 148.913 34.375 147.188 34.375C145.462 34.375 144.062 35.7741 144.062 37.5C144.062 39.2259 145.462 40.625 147.188 40.625Z" fill="#FFFA48"/>
<path d="M62.8125 10.9375C64.5384 10.9375 65.9375 9.53839 65.9375 7.8125C65.9375 6.08661 64.5384 4.6875 62.8125 4.6875C61.0866 4.6875 59.6875 6.08661 59.6875 7.8125C59.6875 9.53839 61.0866 10.9375 62.8125 10.9375Z" fill="#FFFA48"/>
<path d="M69.0625 25C70.7884 25 72.1875 23.6009 72.1875 21.875C72.1875 20.1491 70.7884 18.75 69.0625 18.75C67.3366 18.75 65.9375 20.1491 65.9375 21.875C65.9375 23.6009 67.3366 25 69.0625 25Z" fill="#FFFA48"/>
<path d="M62.8125 40.625C64.5384 40.625 65.9375 39.2259 65.9375 37.5C65.9375 35.7741 64.5384 34.375 62.8125 34.375C61.0866 34.375 59.6875 35.7741 59.6875 37.5C59.6875 39.2259 61.0866 40.625 62.8125 40.625Z" fill="#FFFA48"/>
<path d="M62.8125 95.3125C64.5384 95.3125 65.9375 93.9134 65.9375 92.1875C65.9375 90.4616 64.5384 89.0625 62.8125 89.0625C61.0866 89.0625 59.6875 90.4616 59.6875 92.1875C59.6875 93.9134 61.0866 95.3125 62.8125 95.3125Z" fill="#FFFA48"/>
<path d="M69.0625 81.25C70.7884 81.25 72.1875 79.8509 72.1875 78.125C72.1875 76.3991 70.7884 75 69.0625 75C67.3366 75 65.9375 76.3991 65.9375 78.125C65.9375 79.8509 67.3366 81.25 69.0625 81.25Z" fill="#FFFA48"/>
<path d="M62.8125 65.625C64.5384 65.625 65.9375 64.2259 65.9375 62.5C65.9375 60.7741 64.5384 59.375 62.8125 59.375C61.0866 59.375 59.6875 60.7741 59.6875 62.5C59.6875 64.2259 61.0866 65.625 62.8125 65.625Z" fill="#FFFA48"/>
<path d="M147.188 95.3125C148.913 95.3125 150.312 93.9134 150.312 92.1875C150.312 90.4616 148.913 89.0625 147.188 89.0625C145.462 89.0625 144.062 90.4616 144.062 92.1875C144.062 93.9134 145.462 95.3125 147.188 95.3125Z" fill="#FFFA48"/>
<path d="M140.938 81.25C142.663 81.25 144.062 79.8509 144.062 78.125C144.062 76.3991 142.663 75 140.938 75C139.212 75 137.812 76.3991 137.812 78.125C137.812 79.8509 139.212 81.25 140.938 81.25Z" fill="#FFFA48"/>
<path d="M147.188 65.625C148.913 65.625 150.312 64.2259 150.312 62.5C150.312 60.7741 148.913 59.375 147.188 59.375C145.462 59.375 144.062 60.7741 144.062 62.5C144.062 64.2259 145.462 65.625 147.188 65.625Z" fill="#FFFA48"/>
<path d="M147.188 9.375C148.05 9.375 148.75 8.67545 148.75 7.8125C148.75 6.94956 148.05 6.25 147.188 6.25C146.325 6.25 145.625 6.94956 145.625 7.8125C145.625 8.67545 146.325 9.375 147.188 9.375Z" fill="#FDC741"/>
<path d="M140.938 23.4375C141.8 23.4375 142.5 22.7379 142.5 21.875C142.5 21.0121 141.8 20.3125 140.938 20.3125C140.075 20.3125 139.375 21.0121 139.375 21.875C139.375 22.7379 140.075 23.4375 140.938 23.4375Z" fill="#FDC741"/>
<path d="M147.188 39.0625C148.05 39.0625 148.75 38.3629 148.75 37.5C148.75 36.6371 148.05 35.9375 147.188 35.9375C146.325 35.9375 145.625 36.6371 145.625 37.5C145.625 38.3629 146.325 39.0625 147.188 39.0625Z" fill="#FDC741"/>
<path d="M147.188 64.0625C148.05 64.0625 148.75 63.3629 148.75 62.5C148.75 61.6371 148.05 60.9375 147.188 60.9375C146.325 60.9375 145.625 61.6371 145.625 62.5C145.625 63.3629 146.325 64.0625 147.188 64.0625Z" fill="#FDC741"/>
<path d="M140.938 79.6875C141.8 79.6875 142.5 78.9879 142.5 78.125C142.5 77.2621 141.8 76.5625 140.938 76.5625C140.075 76.5625 139.375 77.2621 139.375 78.125C139.375 78.9879 140.075 79.6875 140.938 79.6875Z" fill="#FDC741"/>
<path d="M147.188 93.75C148.05 93.75 148.75 93.0504 148.75 92.1875C148.75 91.3246 148.05 90.625 147.188 90.625C146.325 90.625 145.625 91.3246 145.625 92.1875C145.625 93.0504 146.325 93.75 147.188 93.75Z" fill="#FDC741"/>
<path d="M62.8125 93.75C63.6754 93.75 64.375 93.0504 64.375 92.1875C64.375 91.3246 63.6754 90.625 62.8125 90.625C61.9496 90.625 61.25 91.3246 61.25 92.1875C61.25 93.0504 61.9496 93.75 62.8125 93.75Z" fill="#FDC741"/>
<path d="M69.0625 79.6875C69.9254 79.6875 70.625 78.9879 70.625 78.125C70.625 77.2621 69.9254 76.5625 69.0625 76.5625C68.1996 76.5625 67.5 77.2621 67.5 78.125C67.5 78.9879 68.1996 79.6875 69.0625 79.6875Z" fill="#FDC741"/>
<path d="M62.8125 64.0625C63.6754 64.0625 64.375 63.3629 64.375 62.5C64.375 61.6371 63.6754 60.9375 62.8125 60.9375C61.9496 60.9375 61.25 61.6371 61.25 62.5C61.25 63.3629 61.9496 64.0625 62.8125 64.0625Z" fill="#FDC741"/>
<path d="M62.8125 39.0625C63.6754 39.0625 64.375 38.3629 64.375 37.5C64.375 36.6371 63.6754 35.9375 62.8125 35.9375C61.9496 35.9375 61.25 36.6371 61.25 37.5C61.25 38.3629 61.9496 39.0625 62.8125 39.0625Z" fill="#FDC741"/>
<path d="M69.0625 23.4375C69.9254 23.4375 70.625 22.7379 70.625 21.875C70.625 21.0121 69.9254 20.3125 69.0625 20.3125C68.1996 20.3125 67.5 21.0121 67.5 21.875C67.5 22.7379 68.1996 23.4375 69.0625 23.4375Z" fill="#FDC741"/>
<path d="M62.8125 9.375C63.6754 9.375 64.375 8.67545 64.375 7.8125C64.375 6.94956 63.6754 6.25 62.8125 6.25C61.9496 6.25 61.25 6.94956 61.25 7.8125C61.25 8.67545 61.9496 9.375 62.8125 9.375Z" fill="#FDC741"/>
<path d="M126.875 50C126.875 50.8594 126.172 51.5625 125.312 51.5625C125.156 51.5625 125.016 51.5469 124.875 51.5C124.734 50.5937 124.516 49.7188 124.266 48.8438C124.547 48.5938 124.906 48.4375 125.312 48.4375C126.172 48.4375 126.875 49.1406 126.875 50Z" fill="#FCEA42"/>
<path d="M105 82.8125C123.122 82.8125 137.812 68.1218 137.812 50C137.812 31.8782 123.122 17.1875 105 17.1875C86.8782 17.1875 72.1875 31.8782 72.1875 50C72.1875 68.1218 86.8782 82.8125 105 82.8125Z" fill="#FFFA48"/>
<path d="M135.516 62.0469C130.734 74.2031 118.875 82.8125 105 82.8125C86.875 82.8125 72.1875 68.125 72.1875 50C72.1875 37.2344 79.4687 26.1719 90.1094 20.7656C88.625 24.5 87.8125 28.5625 87.8125 32.8125C87.8125 50.9375 102.5 65.625 120.625 65.625C125.984 65.625 131.047 64.3437 135.516 62.0469Z" fill="#FCEA42"/>
<path d="M105 76.5625C119.67 76.5625 131.562 64.6701 131.562 50C131.562 35.3299 119.67 23.4375 105 23.4375C90.3299 23.4375 78.4375 35.3299 78.4375 50C78.4375 64.6701 90.3299 76.5625 105 76.5625Z" fill="#FDC741"/>
<path d="M120.625 65.6249C102.5 65.6249 87.8125 50.9374 87.8125 32.8124C87.8125 31.7374 87.8656 30.6749 87.9672 29.6265C82.1453 34.4999 78.4375 41.814 78.4375 49.9999C78.4375 64.6702 90.3297 76.5624 105 76.5624C114.095 76.5624 122.116 71.9858 126.903 65.0155C124.87 65.4108 122.773 65.6249 120.625 65.6249Z" fill="#EFAD1B"/>
<path d="M84.6875 51.5625C85.5504 51.5625 86.25 50.8629 86.25 50C86.25 49.1371 85.5504 48.4375 84.6875 48.4375C83.8246 48.4375 83.125 49.1371 83.125 50C83.125 50.8629 83.8246 51.5625 84.6875 51.5625Z" fill="#FFFA48"/>
<path d="M125.312 51.5625C126.175 51.5625 126.875 50.8629 126.875 50C126.875 49.1371 126.175 48.4375 125.312 48.4375C124.45 48.4375 123.75 49.1371 123.75 50C123.75 50.8629 124.45 51.5625 125.312 51.5625Z" fill="#FFFA48"/>
<path d="M97.1875 57.8125C97.3063 57.8125 97.4266 57.7984 97.5469 57.7719C98.2516 57.6031 98.75 56.975 98.75 56.25V43.75C98.75 42.8859 98.05 42.1875 97.1875 42.1875C96.325 42.1875 95.625 42.8859 95.625 43.75V49.6312L92.3359 43.0516C92.0109 42.4031 91.2891 42.0703 90.5781 42.2297C89.8734 42.3969 89.375 43.025 89.375 43.75V56.25C89.375 57.1141 90.075 57.8125 90.9375 57.8125C91.8 57.8125 92.5 57.1141 92.5 56.25V50.3687L95.7891 56.9484C96.0594 57.4875 96.6047 57.8125 97.1875 57.8125Z" fill="#FFFA48"/>
<path d="M109.688 45.3125C110.55 45.3125 111.25 44.6141 111.25 43.75C111.25 42.8859 110.55 42.1875 109.688 42.1875H103.438C102.575 42.1875 101.875 42.8859 101.875 43.75V56.25C101.875 57.1141 102.575 57.8125 103.438 57.8125C104.3 57.8125 105 57.1141 105 56.25V51.5625H108.125C108.988 51.5625 109.688 50.8641 109.688 50C109.688 49.1359 108.988 48.4375 108.125 48.4375H105V45.3125H109.688Z" fill="#FFFA48"/>
<path d="M122.188 42.1875H115.938C115.075 42.1875 114.375 42.8859 114.375 43.75C114.375 44.6141 115.075 45.3125 115.938 45.3125H117.5V56.25C117.5 57.1141 118.2 57.8125 119.062 57.8125C119.925 57.8125 120.625 57.1141 120.625 56.25V45.3125H122.188C123.05 45.3125 123.75 44.6141 123.75 43.75C123.75 42.8859 123.05 42.1875 122.188 42.1875Z" fill="#FFFA48"/>
<path d="M96.4922 38.7997L105 33.1278L113.508 38.7997C113.775 38.9763 114.077 39.0622 114.373 39.0622C114.878 39.0622 115.373 38.8185 115.675 38.3669C116.153 37.6481 115.959 36.6794 115.242 36.1997L105.867 29.9497C105.342 29.5981 104.659 29.5981 104.134 29.9497L94.7594 36.1997C94.0422 36.6794 93.8484 37.6481 94.3265 38.3669C94.8031 39.0841 95.7719 39.2763 96.4922 38.7997Z" fill="#FFFA48"/>
<path d="M113.508 61.2L105 66.8719L96.4922 61.2C95.7719 60.7203 94.8031 60.9156 94.325 61.6328C93.8469 62.3516 94.0406 63.3203 94.7578 63.8L104.133 70.05C104.395 70.225 104.698 70.3125 105 70.3125C105.302 70.3125 105.605 70.225 105.867 70.05L115.242 63.8C115.959 63.3203 116.153 62.3516 115.675 61.6328C115.195 60.9156 114.225 60.7203 113.508 61.2Z" fill="#FFFA48"/>
<path d="M84.6875 51.5625C85.5504 51.5625 86.25 50.8629 86.25 50C86.25 49.1371 85.5504 48.4375 84.6875 48.4375C83.8246 48.4375 83.125 49.1371 83.125 50C83.125 50.8629 83.8246 51.5625 84.6875 51.5625Z" fill="#FCEA42"/>
<path d="M98.5156 57.0625C98.3125 57.4063 97.9687 57.6719 97.5469 57.7656C97.4219 57.7969 97.3125 57.8125 97.1875 57.8125C96.6094 57.8125 96.0625 57.4844 95.7969 56.9531L92.5 50.375V56.25C92.5 57.1094 91.7969 57.8125 90.9375 57.8125C90.0781 57.8125 89.375 57.1094 89.375 56.25V43.75C89.375 43.5469 89.4062 43.3594 89.4844 43.1875C91.2812 48.5625 94.4219 53.3281 98.5156 57.0625Z" fill="#FCEA42"/>
<path d="M113.625 64.8592L105.859 70.0467C105.609 70.2186 105.297 70.3123 105 70.3123C104.703 70.3123 104.391 70.2186 104.141 70.0467L94.7656 63.7967C94.0469 63.328 93.8437 62.3592 94.3281 61.6405C94.7969 60.9217 95.7656 60.7186 96.4844 61.203L105 66.8748L109.687 63.7498C110.969 64.203 112.281 64.578 113.625 64.8592Z" fill="#FCEA42"/>
</svg>
