<svg width="211" height="222" viewBox="0 0 211 222" fill="none" xmlns="http://www.w3.org/2000/svg">
<path d="M95.625 78.125C116.336 78.125 133.125 61.3357 133.125 40.625C133.125 19.9143 116.336 3.125 95.625 3.125C74.9143 3.125 58.125 19.9143 58.125 40.625C58.125 61.3357 74.9143 78.125 95.625 78.125Z" fill="#225980"/>
<path d="M95.625 73.3426C113.694 73.3426 128.342 58.6946 128.342 40.6254C128.342 22.5562 113.694 7.9082 95.625 7.9082C77.5558 7.9082 62.9078 22.5562 62.9078 40.6254C62.9078 58.6946 77.5558 73.3426 95.625 73.3426Z" fill="#419BD7"/>
<path d="M95.625 71.875C112.884 71.875 126.875 57.8839 126.875 40.625C126.875 23.3661 112.884 9.375 95.625 9.375C78.3661 9.375 64.375 23.3661 64.375 40.625C64.375 57.8839 78.3661 71.875 95.625 71.875Z" fill="#26669E"/>
<path d="M73.8453 59.2799C73.8434 63.8342 74.6104 68.3561 76.1141 72.6549C83.3076 77.0391 91.7678 78.8735 100.131 77.8623C108.495 76.8512 116.274 73.0534 122.215 67.0812C128.157 61.1089 131.914 53.3101 132.882 44.9416C133.85 36.5731 131.971 28.1225 127.55 20.9518C121.447 18.8535 114.93 18.2431 108.543 19.1715C102.156 20.1 96.0835 22.5404 90.8301 26.2896C85.5767 30.0389 81.2947 34.9886 78.3404 40.7268C75.3862 46.465 73.845 52.8259 73.8453 59.2799Z" fill="#18435E"/>
<path d="M73.75 39.0625H84.6875V42.1875H73.75V39.0625Z" fill="#7FCDF2"/>
<path d="M89.375 35.9375H81.5625C81.1481 35.9375 80.7507 35.7729 80.4576 35.4799C80.1646 35.1868 80 34.7894 80 34.375V28.125H83.125V32.8125H89.375V35.9375Z" fill="#7FCDF2"/>
<path d="M94.0625 20.3125H97.1875V31.25H94.0625V20.3125Z" fill="#7FCDF2"/>
<path d="M73.75 43.6543C75.4759 43.6543 76.875 42.2552 76.875 40.5293C76.875 38.8034 75.4759 37.4043 73.75 37.4043C72.0241 37.4043 70.625 38.8034 70.625 40.5293C70.625 42.2552 72.0241 43.6543 73.75 43.6543Z" fill="#F9D161"/>
<path d="M95.625 21.7793C97.3509 21.7793 98.75 20.3802 98.75 18.6543C98.75 16.9284 97.3509 15.5293 95.625 15.5293C93.8991 15.5293 92.5 16.9284 92.5 18.6543C92.5 20.3802 93.8991 21.7793 95.625 21.7793Z" fill="#F9D161"/>
<path d="M81.5625 29.5918C83.2884 29.5918 84.6875 28.1927 84.6875 26.4668C84.6875 24.7409 83.2884 23.3418 81.5625 23.3418C79.8366 23.3418 78.4375 24.7409 78.4375 26.4668C78.4375 28.1927 79.8366 29.5918 81.5625 29.5918Z" fill="#F9D161"/>
<path d="M84.6875 39.0625H79.2531C78.6677 40.0781 78.125 41.1198 77.625 42.1875H84.6875V39.0625Z" fill="#4AAEE3"/>
<path d="M89.375 35.9375V32.8125H83.6953C82.8453 33.7958 82.0437 34.8193 81.2906 35.8828C81.3793 35.9097 81.4703 35.928 81.5625 35.9375H89.375Z" fill="#4AAEE3"/>
<path d="M97.1875 31.2498V22.5732C96.1188 23.0753 95.0771 23.6217 94.0625 24.2123V31.2498H97.1875Z" fill="#4AAEE3"/>
<path d="M114.375 96.875C135.086 96.875 151.875 80.0857 151.875 59.375C151.875 38.6643 135.086 21.875 114.375 21.875C93.6643 21.875 76.875 38.6643 76.875 59.375C76.875 80.0857 93.6643 96.875 114.375 96.875Z" fill="#FBE47F"/>
<path d="M114.375 92.0926C132.444 92.0926 147.092 77.4446 147.092 59.3754C147.092 41.3062 132.444 26.6582 114.375 26.6582C96.3058 26.6582 81.6578 41.3062 81.6578 59.3754C81.6578 77.4446 96.3058 92.0926 114.375 92.0926Z" fill="#BC9834"/>
<path d="M114.375 90.625C131.634 90.625 145.625 76.6339 145.625 59.375C145.625 42.1161 131.634 28.125 114.375 28.125C97.1161 28.125 83.125 42.1161 83.125 59.375C83.125 76.6339 97.1161 90.625 114.375 90.625Z" fill="#F5B94C"/>
<path d="M128.438 48.4375L122.188 54.6875L112.812 45.3125L103.438 54.6875L97.1875 48.4375L112.812 32.8125L128.438 48.4375Z" fill="#CCCCCC"/>
<path d="M128.438 70.3125L122.188 64.0625L112.812 73.4375L103.438 64.0625L97.1875 70.3125L112.812 85.9375L128.438 70.3125Z" fill="#CCCCCC"/>
<path d="M106.552 59.375L112.802 53.1249L119.052 59.375L112.802 65.6251L106.552 59.375Z" fill="#CCCCCC"/>
<path d="M86.241 59.373L92.4911 53.1229L98.7413 59.373L92.4911 65.6232L86.241 59.373Z" fill="#CCCCCC"/>
<path d="M126.863 59.3765L133.113 53.1263L139.363 59.3765L133.113 65.6266L126.863 59.3765Z" fill="#CCCCCC"/>
<path d="M130 48.4375L123.75 54.6875L114.375 45.3125L105 54.6875L98.75 48.4375L114.375 32.8125L130 48.4375Z" fill="white"/>
<path d="M130 70.3125L123.75 64.0625L114.375 73.4375L105 64.0625L98.75 70.3125L114.375 85.9375L130 70.3125Z" fill="white"/>
<path d="M108.114 59.375L114.365 53.1249L120.615 59.375L114.365 65.6251L108.114 59.375Z" fill="white"/>
<path d="M87.8035 59.373L94.0536 53.1229L100.304 59.373L94.0536 65.6232L87.8035 59.373Z" fill="white"/>
<path d="M128.424 59.377L134.674 53.1268L140.924 59.377L134.674 65.6271L128.424 59.377Z" fill="white"/>
</svg>
