<svg width="187" height="220" viewBox="0 0 187 220" fill="none" xmlns="http://www.w3.org/2000/svg">
<g clip-path="url(#clip0_51_3477)">
<path d="M113.455 4.99072L82.9098 53.8351L113.455 67.348L124.012 37.7882L113.455 4.99072Z" fill="#E65A5B"/>
<path d="M113.455 4.99072V67.3476L144 53.8347L113.455 4.99072Z" fill="#FF6465"/>
<path d="M75.3404 20.0649L44 34.1101L52.4006 51.6181L65.7457 56.7753L89.8203 44.4218L97.0861 34.1101L75.3404 20.0649Z" fill="#A6E7FF"/>
<path d="M65.7457 48.1557L44 34.1104V67.6562L65.7457 81.7014L75.1479 61.9686L65.7457 48.1557Z" fill="#6AB2CC"/>
<path d="M97.0861 67.6562V34.1104L65.7457 48.1557V81.7014L97.0861 67.6562Z" fill="#7DD2F0"/>
<path d="M104.511 95.0097C118.63 95.0097 130.076 83.564 130.076 69.445C130.076 55.3261 118.63 43.8804 104.511 43.8804C90.392 43.8804 78.9463 55.3261 78.9463 69.445C78.9463 83.564 90.392 95.0097 104.511 95.0097Z" fill="#FFD782"/>
<path opacity="0.1" d="M83.5609 74.0599C83.5609 59.9403 95.007 48.4942 109.127 48.4942C115.01 48.4942 120.428 50.4827 124.748 53.8226C120.072 47.7743 112.747 43.8784 104.511 43.8784C90.3912 43.8784 78.9451 55.3245 78.9451 69.444C78.9451 77.6802 82.8408 85.0058 88.8892 89.6813C85.5494 85.361 83.5609 79.9431 83.5609 74.0599Z" fill="black"/>
</g>
<defs>
<clipPath id="clip0_51_3477">
<rect width="100" height="100" fill="white" transform="translate(44)"/>
</clipPath>
</defs>
</svg>
