<svg width="187" height="220" viewBox="0 0 187 220" fill="none" xmlns="http://www.w3.org/2000/svg">
<path d="M93 88.1344C71.9725 88.1344 54.8652 71.0271 54.8652 49.9998C54.8652 28.9725 71.9725 11.8652 93 11.8652C114.028 11.8652 131.135 28.9725 131.135 49.9998C131.135 71.0271 114.027 88.1344 93 88.1344ZM93 14.8834C73.6367 14.8834 57.8834 30.6365 57.8834 49.9998C57.8834 69.3631 73.6367 85.1162 93 85.1162C112.363 85.1162 128.116 69.3631 128.116 49.9998C128.116 30.6365 112.363 14.8834 93 14.8834Z" fill="#FFF1E2"/>
<path d="M93 78.4658C77.3039 78.4658 64.5342 65.6961 64.5342 50C64.5342 34.3039 77.3037 21.5342 93 21.5342C108.696 21.5342 121.466 34.3039 121.466 50C121.466 65.6961 108.696 78.4658 93 78.4658ZM93 24.5523C78.968 24.5523 67.5522 35.9682 67.5522 50C67.5522 64.0318 78.9678 75.4477 93 75.4477C107.032 75.4477 118.448 64.032 118.448 50C118.448 35.968 107.032 24.5523 93 24.5523Z" fill="#FFF1E2"/>
<path d="M93 97.1719C80.4 97.1719 68.5541 92.2652 59.6446 83.3557C50.735 74.4461 45.8281 62.6 45.8281 50C45.8281 37.4 50.735 25.5541 59.6446 16.6445C68.5541 7.73496 80.3998 2.82812 93 2.82812C105.6 2.82812 117.446 7.73477 126.355 16.6443C135.265 25.5539 140.172 37.4 140.172 50C140.172 62.6 135.265 74.4459 126.355 83.3555C117.446 92.265 105.6 97.1719 93 97.1719ZM93 5.84629C68.6537 5.84629 48.8463 25.6535 48.8463 50C48.8463 74.3465 68.6537 94.1537 93 94.1537C117.346 94.1537 137.154 74.3465 137.154 50C137.154 25.6535 117.346 5.84629 93 5.84629Z" fill="#FFF1E2"/>
<path d="M91.7887 71.497C91.7887 72.8249 92.8691 73.9034 94.1971 73.9034H107.569C104.551 88.7907 91.3883 99.9979 75.6096 99.9979C63.7887 99.9979 53.4365 93.7083 47.7162 84.2917H64.8611C67.5514 84.2917 69.7404 82.1046 69.7404 79.4144C69.7404 78.1126 69.2314 76.8872 68.3119 75.9657C67.3904 75.0442 66.165 74.5372 64.8611 74.5372H63.1045C60.2996 74.5372 58.016 72.2556 58.016 69.4526C58.016 68.0966 58.5451 66.8188 59.5049 65.8571C60.4666 64.8933 61.7463 64.3642 63.1045 64.3642H80.0059C82.7102 64.3642 84.9094 62.1649 84.9094 59.4608C84.9094 58.153 84.3982 56.9216 83.4729 55.9921C82.5473 55.0685 81.3139 54.5575 80.0061 54.5575H69.515C67.0061 54.5575 64.9656 52.5192 64.9656 50.0122C64.9656 48.797 65.4385 47.654 66.2977 46.7948C67.1568 45.9356 68.2996 45.4608 69.515 45.4608C71.352 45.4608 73.0805 44.7466 74.3781 43.4487C75.6779 42.1489 76.3941 40.4206 76.3941 38.5815C76.3941 37.481 76.2029 36.4085 75.8248 35.3944C75.7383 35.1993 75.6559 34.9921 75.5754 34.7808H75.6096C93.6197 34.7808 108.219 49.3804 108.219 67.3903C108.219 67.9597 108.205 68.5251 108.175 69.0886H94.1969C92.8691 69.0884 91.7887 70.1688 91.7887 71.497Z" fill="#6D81D5"/>
<path d="M98.843 73.9028H107.569C104.551 88.7903 91.3883 99.9995 75.6096 99.9995C74.1307 99.9995 72.674 99.9009 71.2475 99.7099C85.0422 97.8647 96.1064 87.3958 98.843 73.9028Z" fill="#5169CD"/>
<path d="M108.219 67.3879C108.219 67.9572 108.205 68.5248 108.175 69.0881H99.4484C99.4785 68.5248 99.4928 67.9572 99.4928 67.3879C99.4928 52.5629 89.5994 40.0459 76.0522 36.0861C75.9857 35.8527 75.9094 35.6213 75.8248 35.3939C75.7383 35.1988 75.6559 34.9916 75.5754 34.7803H75.6096C93.6197 34.7803 108.219 49.3779 108.219 67.3879Z" fill="#5169CD"/>
<path d="M90.2791 71.4958C90.2791 73.6593 92.0328 75.413 94.1963 75.413H107.22C107.856 72.9048 108.2 70.281 108.216 67.5786H94.1963C92.0328 67.5786 90.2791 69.3323 90.2791 71.4958Z" fill="#27E19D"/>
<path d="M99.4895 67.5786C99.4738 70.281 99.1295 72.905 98.4934 75.413H107.219C107.855 72.9048 108.2 70.281 108.215 67.5786H99.4895Z" fill="#26D192"/>
<path d="M86.4182 59.4612C86.4182 63.0022 83.5469 65.8735 80.0059 65.8735H63.1045C62.1176 65.8735 61.2225 66.273 60.5738 66.9216C59.9277 67.57 59.5258 68.463 59.5258 69.4522C59.5258 71.4284 61.1283 73.0284 63.1043 73.0284H64.8619C66.6242 73.0284 68.2221 73.7427 69.3779 74.8987C70.534 76.0548 71.2482 77.6503 71.2482 79.4147C71.2482 82.9417 68.3887 85.8013 64.8617 85.8013H48.6914C45.101 80.5638 43.0004 74.222 43.0004 67.389C43.0004 49.3786 57.599 34.7798 75.6096 34.7798C76.15 34.7798 76.6881 34.7938 77.2215 34.8196C77.6633 35.9897 77.9029 37.2587 77.9029 38.5815C77.9029 40.8983 76.9631 42.9966 75.4451 44.5146C73.9272 46.0325 71.8313 46.97 69.5145 46.97C68.6732 46.97 67.9143 47.3106 67.3645 47.8606C66.8147 48.4104 66.474 49.1718 66.474 50.0106C66.474 51.6884 67.8346 53.0487 69.5145 53.0487H80.0059C81.7752 53.0487 83.3801 53.7677 84.5408 54.9261C85.699 56.087 86.4182 57.6919 86.4182 59.4612Z" fill="#27E19D"/>
<path d="M77.9027 38.582C77.9027 40.8988 76.9629 42.9971 75.4449 44.515C73.927 46.033 71.8311 46.9705 69.5143 46.9705C68.6731 46.9705 67.9141 47.3111 67.3643 47.8611C66.8145 48.4109 66.4738 49.1723 66.4738 50.0111C66.4738 51.6889 67.8344 53.0492 69.5143 53.0492H63.2688C61.5887 53.0492 60.2283 51.6887 60.2283 50.0111C60.2283 49.1723 60.569 48.4109 61.119 47.8611C61.6688 47.3113 62.4277 46.9705 63.269 46.9705C65.5858 46.9705 67.6817 46.033 69.1996 44.515C70.7176 42.9971 71.6574 40.8988 71.6574 38.582C71.6574 37.3625 71.4531 36.1877 71.0746 35.0951C72.5572 34.8859 74.0705 34.7803 75.6096 34.7803C76.15 34.7803 76.6881 34.7943 77.2215 34.8201C77.6631 35.9902 77.9027 37.259 77.9027 38.582Z" fill="#26D192"/>
<path d="M86.4182 59.4611C86.4182 63.0021 83.5469 65.8734 80.0059 65.8734H73.7604C77.3014 65.8734 80.1727 63.0021 80.1727 59.4611C80.1727 57.6918 79.4537 56.0869 78.2953 54.9262C77.1346 53.7678 75.5297 53.0488 73.7604 53.0488H80.0059C81.7752 53.0488 83.3801 53.7678 84.5408 54.9262C85.699 56.0869 86.4182 57.6918 86.4182 59.4611Z" fill="#26D192"/>
<path d="M71.2485 79.4147C71.2485 82.9417 68.3889 85.8013 64.8619 85.8013H58.6164C62.1434 85.8013 65.0029 82.9417 65.0029 79.4147C65.0029 77.6501 64.2887 76.0546 63.1326 74.8987C61.9766 73.7427 60.3787 73.0284 58.6164 73.0284H56.8588C54.8826 73.0284 53.2803 71.4282 53.2803 69.4522C53.2803 68.463 53.682 67.5702 54.3283 66.9216C54.9768 66.2731 55.8721 65.8735 56.859 65.8735H63.1045C62.1176 65.8735 61.2225 66.2729 60.5738 66.9216C59.9277 67.57 59.5258 68.463 59.5258 69.4522C59.5258 71.4284 61.1283 73.0284 63.1043 73.0284H64.8619C66.6242 73.0284 68.2221 73.7427 69.3779 74.8987C70.5342 76.0546 71.2485 77.6501 71.2485 79.4147Z" fill="#26D192"/>
<path d="M87.4812 90.2601H83.2324C80.7701 90.2601 78.774 88.264 78.774 85.8017C78.774 83.3394 80.7701 81.3433 83.2324 81.3433H87.4812C89.9436 81.3433 91.9396 83.3394 91.9396 85.8017C91.9396 88.2638 89.9436 90.2601 87.4812 90.2601Z" fill="#27E19D"/>
<path d="M91.9398 85.8017C91.9398 87.0329 91.4418 88.1466 90.6334 88.9526C89.8252 89.7608 88.7113 90.2591 87.4801 90.2591H83.2318C83.0156 90.2591 82.8043 90.245 82.5975 90.212C83.5727 90.0733 84.4467 89.6198 85.1117 88.9526C85.9201 88.1468 86.4182 87.0329 86.4182 85.8017C86.4182 83.5554 84.7568 81.6991 82.5975 81.3913C82.8043 81.3585 83.0156 81.3442 83.2318 81.3442H87.4801C89.9426 81.3444 91.9398 83.3394 91.9398 85.8017Z" fill="#26D192"/>
<path d="M59.0535 57.9608H57.3797C56.5461 57.9608 55.8707 57.2852 55.8707 56.4519C55.8707 55.6185 56.5463 54.9429 57.3797 54.9429H59.0535C59.8871 54.9429 60.5625 55.6185 60.5625 56.4519C60.5625 57.2852 59.8869 57.9608 59.0535 57.9608Z" fill="#20C682"/>
<path d="M51.9018 64.5458H50.2279C49.3943 64.5458 48.7189 63.8702 48.7189 63.0368C48.7189 62.2034 49.3945 61.5278 50.2279 61.5278H51.9018C52.7354 61.5278 53.4107 62.2034 53.4107 63.0368C53.4107 63.8702 52.7354 64.5458 51.9018 64.5458Z" fill="#18B773"/>
<path d="M57.3795 80.3285H55.7055C54.8719 80.3285 54.1965 79.6529 54.1965 78.8195C54.1965 77.9861 54.8721 77.3105 55.7055 77.3105H57.3795C58.2131 77.3105 58.8885 77.9861 58.8885 78.8195C58.8887 79.6529 58.2131 80.3285 57.3795 80.3285Z" fill="#20C682"/>
<path d="M112.973 60.052C129.556 60.052 142.999 46.6089 142.999 30.026C142.999 13.4431 129.556 0 112.973 0C96.3902 0 82.9471 13.4431 82.9471 30.026C82.9471 46.6089 96.3902 60.052 112.973 60.052Z" fill="#FFD496"/>
<path d="M143 30.0253C143 46.6081 129.556 60.0519 112.973 60.0519C112.112 60.0519 111.258 60.0147 110.416 59.944C125.801 58.646 137.882 45.747 137.882 30.0253C137.882 14.3038 125.801 1.40635 110.416 0.108301C111.258 0.0375977 112.112 0.000488281 112.973 0.000488281C129.556 0.000488281 143 13.4425 143 30.0253Z" fill="#FCC16D"/>
<path d="M112.973 53.5754C125.979 53.5754 136.522 43.032 136.522 30.026C136.522 17.02 125.979 6.47656 112.973 6.47656C99.9671 6.47656 89.4236 17.02 89.4236 30.026C89.4236 43.032 99.9671 53.5754 112.973 53.5754Z" fill="#FC9744"/>
<path d="M136.522 30.0256C136.522 43.0314 125.979 53.5764 112.973 53.5764C111.904 53.5764 110.853 53.5045 109.823 53.3674C121.339 51.8275 130.22 41.9631 130.22 30.0256C130.22 18.0881 121.339 8.22539 109.823 6.68555C110.853 6.54844 111.904 6.47656 112.973 6.47656C125.979 6.47637 136.522 17.0195 136.522 30.0256Z" fill="#FB8627"/>
<path d="M112.973 45.8276C121.7 45.8276 128.775 38.7529 128.775 30.0259C128.775 21.2988 121.7 14.2241 112.973 14.2241C104.246 14.2241 97.1713 21.2988 97.1713 30.0259C97.1713 38.7529 104.246 45.8276 112.973 45.8276Z" fill="#FCB44D"/>
<path d="M128.775 30.0254C128.775 38.7523 121.7 45.8279 112.973 45.8279C110.65 45.8279 108.443 45.327 106.456 44.4244C107.198 44.5424 107.961 44.6021 108.735 44.6021C116.785 44.6021 123.31 38.0754 123.31 30.0254C123.31 21.9754 116.785 15.4504 108.735 15.4504C107.959 15.4504 107.195 15.5119 106.451 15.6281C108.439 14.7271 110.648 14.2246 112.973 14.2246C121.7 14.2246 128.775 21.2984 128.775 30.0254Z" fill="#FCA62F"/>
<path d="M119.536 26.4293C119.536 24.5074 118.422 22.8414 116.807 22.0408V20.4465C116.807 19.6131 116.131 18.9375 115.298 18.9375C114.464 18.9375 113.789 19.6131 113.789 20.4465V21.534H112.592V20.4465C112.592 19.6131 111.917 18.9375 111.083 18.9375C110.25 18.9375 109.574 19.6131 109.574 20.4465V21.534H109.006C108.173 21.534 107.497 22.2096 107.497 23.043V36.5881C107.497 37.4215 108.173 38.0971 109.006 38.0971H109.574V39.177C109.574 40.0104 110.25 40.6859 111.083 40.6859C111.917 40.6859 112.592 40.0104 112.592 39.177V38.0971H113.789V39.177C113.789 40.0104 114.464 40.6859 115.298 40.6859C116.131 40.6859 116.807 40.0104 116.807 39.177V37.5902C118.422 36.7896 119.536 35.1236 119.536 33.2018C119.536 31.8887 119.015 30.6955 118.171 29.8154C119.015 28.9355 119.536 27.7424 119.536 26.4293ZM116.518 33.202C116.518 34.2371 115.676 35.0791 114.641 35.0791H110.515V31.3246H114.641C115.676 31.3246 116.518 32.1668 116.518 33.202ZM110.515 28.3066V24.5521H114.641C115.676 24.5521 116.518 25.3941 116.518 26.4293C116.518 27.4645 115.676 28.3066 114.641 28.3066H110.515Z" fill="#EA9024"/>
<path d="M72.7516 24.6025C75.3134 24.6025 77.3902 22.5257 77.3902 19.9639C77.3902 17.402 75.3134 15.3252 72.7516 15.3252C70.1897 15.3252 68.1129 17.402 68.1129 19.9639C68.1129 22.5257 70.1897 24.6025 72.7516 24.6025Z" fill="#23F1A8"/>
<path d="M77.3904 19.9632C77.3904 22.5259 75.3129 24.6021 72.7516 24.6021C71.8158 24.6021 70.9436 24.3241 70.2137 23.846C72.2428 23.7161 73.8504 22.0269 73.8504 19.9632C73.8504 17.8995 72.2428 16.2104 70.2123 16.0817C70.9422 15.6034 71.8143 15.3257 72.7516 15.3257C75.3129 15.3259 77.3904 17.4019 77.3904 19.9632Z" fill="#26D192"/>
<path d="M118.895 93.4316C121.457 93.4316 123.534 91.3548 123.534 88.793C123.534 86.2311 121.457 84.1543 118.895 84.1543C116.333 84.1543 114.256 86.2311 114.256 88.793C114.256 91.3548 116.333 93.4316 118.895 93.4316Z" fill="#FCB44D"/>
<path d="M123.534 88.7923C123.534 91.355 121.457 93.4312 118.895 93.4312C117.96 93.4312 117.087 93.1532 116.357 92.6751C118.387 92.5452 119.994 90.856 119.994 88.7923C119.994 86.7286 118.387 85.0396 116.356 84.9108C117.086 84.4325 117.958 84.1548 118.895 84.1548C121.457 84.1548 123.534 86.231 123.534 88.7923Z" fill="#FCA62F"/>
<path d="M137.656 68.7388C140.218 68.7388 142.295 66.662 142.295 64.1001C142.295 61.5382 140.218 59.4614 137.656 59.4614C135.094 59.4614 133.017 61.5382 133.017 64.1001C133.017 66.662 135.094 68.7388 137.656 68.7388Z" fill="#23F1A8"/>
<path d="M142.295 64.0994C142.295 66.6621 140.217 68.7383 137.656 68.7383C136.72 68.7383 135.848 68.4605 135.118 67.9822C137.147 67.8523 138.755 66.1631 138.755 64.0994C138.755 62.0357 137.147 60.3467 135.117 60.218C135.847 59.7396 136.719 59.4619 137.656 59.4619C140.217 59.4619 142.295 61.5381 142.295 64.0994Z" fill="#26D192"/>
<path d="M51.9018 31.5918C54.4636 31.5918 56.5404 29.515 56.5404 26.9531C56.5404 24.3913 54.4636 22.3145 51.9018 22.3145C49.3399 22.3145 47.2631 24.3913 47.2631 26.9531C47.2631 29.515 49.3399 31.5918 51.9018 31.5918Z" fill="#FB4A59"/>
<path d="M56.5406 26.9524C56.5406 29.5151 54.4631 31.5913 51.9018 31.5913C50.966 31.5913 50.0938 31.3134 49.3639 30.8353C51.393 30.7054 53.0006 29.0161 53.0006 26.9524C53.0006 24.8888 51.393 23.1997 49.3625 23.071C50.0924 22.5927 50.9645 22.3149 51.9018 22.3149C54.4631 22.3149 56.5406 24.3911 56.5406 26.9524Z" fill="#F82F40"/>
</svg>
